<?xml version="1.0" ?><!DOCTYPE svg  PUBLIC '-//W3C//DTD SVG 1.1//EN'  'http://www.w3.org/Graphics/SVG/1.1/DTD/svg11.dtd'><svg height="720pt" version="1.1" viewBox="0 0 720 720" width="720pt" xmlns="http://www.w3.org/2000/svg"><path d=" M 155.80 38.85 C 182.30 28.46 210.68 23.67 239.02 22.13 C 262.41 21.55 285.94 21.95 309.04 26.04 C 344.28 31.83 378.75 44.94 407.21 66.81 C 437.25 89.62 459.55 121.80 472.56 157.05 C 477.58 170.62 481.66 184.64 483.25 199.06 C 485.82 211.98 482.37 225.19 484.55 238.14 C 485.61 251.70 489.40 265.40 497.51 276.50 C 499.24 278.44 501.16 280.24 502.49 282.50 C 504.79 283.81 506.59 285.75 508.47 287.58 C 521.03 298.05 536.58 305.23 552.92 306.88 C 565.67 307.72 578.32 305.52 591.08 306.03 C 608.60 308.19 625.00 316.21 638.41 327.54 C 643.35 332.60 648.46 337.50 653.37 342.59 C 658.46 349.26 663.59 355.96 667.73 363.28 C 672.56 372.93 676.22 383.28 677.98 393.93 C 678.02 475.28 677.99 556.63 678.00 637.98 C 678.32 645.05 673.38 651.13 667.46 654.39 C 656.91 660.28 643.99 661.39 632.38 658.35 C 630.49 658.12 629.63 656.42 628.82 654.94 C 623.78 653.73 619.59 650.38 617.01 645.94 C 607.90 648.73 598.33 647.82 588.97 647.96 C 426.98 647.96 264.99 647.96 103.00 647.95 C 97.92 648.05 92.88 647.25 87.99 645.94 C 85.58 650.00 81.91 653.23 77.35 654.63 C 76.47 656.35 75.36 658.12 73.24 658.36 C 59.31 662.04 42.53 659.69 32.44 648.65 C 29.02 644.98 28.76 639.77 28.98 635.04 C 29.04 505.70 28.97 376.37 29.02 247.04 C 29.81 240.70 28.05 234.26 29.70 228.02 C 30.27 220.30 30.85 212.52 32.95 205.03 C 37.54 163.99 53.34 123.81 80.10 92.13 C 100.18 68.22 126.75 50.10 155.80 38.85 M 163.94 39.01 C 132.52 49.85 103.71 68.71 82.29 94.23 C 55.04 126.53 39.27 167.79 35.57 209.72 C 33.14 226.03 31.75 242.53 32.04 259.03 C 32.04 308.33 31.96 357.64 32.08 406.95 C 246.36 407.00 460.64 406.98 674.91 406.96 C 674.90 401.31 675.57 395.53 674.03 390.00 C 671.64 380.70 668.62 371.44 663.90 363.04 C 658.01 353.84 651.83 344.65 643.70 337.25 C 630.76 323.05 613.09 313.12 594.17 309.71 C 588.53 308.48 582.73 309.28 577.02 309.23 C 564.82 310.29 552.24 311.08 540.30 307.74 C 531.71 305.43 523.43 301.85 515.94 297.06 C 505.60 290.01 495.65 281.57 489.87 270.25 C 481.39 253.96 480.42 235.02 480.86 217.01 C 481.21 209.27 480.06 201.60 479.31 193.93 C 478.07 182.36 474.35 171.25 470.57 160.31 C 460.98 133.71 446.28 108.79 426.70 88.32 C 405.30 65.88 378.20 49.14 348.89 39.17 C 319.43 28.99 288.08 24.76 256.98 25.01 C 225.51 24.55 193.75 28.70 163.94 39.01 M 32.07 415.04 C 31.94 489.36 32.10 563.68 31.99 638.01 C 31.44 643.58 35.89 647.91 39.83 651.17 C 49.80 657.54 62.73 658.42 73.92 655.03 C 74.09 583.35 73.88 511.68 74.02 440.00 C 107.02 440.66 140.04 440.71 173.05 440.92 C 193.36 441.01 213.68 440.78 233.99 441.47 C 266.00 441.66 298.00 441.93 330.01 441.96 C 350.33 441.79 370.64 442.68 390.96 442.60 C 420.32 442.81 449.68 442.97 479.04 442.99 C 530.02 443.93 581.01 443.89 632.00 444.02 C 632.08 514.39 631.98 584.77 632.05 655.14 C 642.73 658.24 654.61 657.45 664.64 652.58 C 670.06 649.74 675.36 644.61 674.96 638.00 C 674.97 563.68 675.02 489.36 674.93 415.04 C 593.32 415.00 511.71 415.05 430.09 415.02 C 429.90 422.34 430.13 429.65 429.99 436.97 C 374.01 437.07 318.02 437.04 262.04 437.01 C 261.89 429.70 262.02 422.39 261.96 415.09 C 185.33 414.93 108.70 415.06 32.07 415.04 M 267.76 415.81 C 267.48 420.94 267.50 426.07 267.73 431.20 C 300.47 431.67 333.23 431.24 365.98 431.39 C 385.39 431.22 404.82 431.71 424.21 431.15 C 424.57 426.02 424.43 420.88 424.26 415.75 C 394.52 415.41 364.77 415.71 335.03 415.61 C 312.61 415.75 290.17 415.31 267.76 415.81 M 89.98 480.00 C 90.01 524.91 89.90 569.81 90.03 614.71 C 89.89 622.16 90.00 629.61 89.96 637.06 C 99.50 640.96 109.99 639.00 120.00 639.47 C 120.00 633.48 120.00 627.49 119.99 621.51 C 120.01 605.03 120.00 588.55 120.00 572.07 C 115.49 572.04 110.79 572.40 106.51 570.71 C 104.67 569.91 102.61 568.35 103.00 566.09 C 102.99 537.39 103.00 508.70 103.00 480.00 C 98.66 480.00 94.32 480.00 89.98 480.00 M 144.00 480.00 C 143.89 509.30 144.22 538.63 143.84 567.92 C 140.30 572.85 133.32 571.89 128.00 572.08 C 128.01 588.57 127.98 605.06 128.02 621.56 C 127.96 627.50 128.08 633.45 127.92 639.40 C 145.24 639.64 162.57 639.28 179.89 639.58 C 180.11 633.57 179.96 627.56 179.98 621.56 C 180.02 605.07 179.99 588.57 180.00 572.08 C 174.68 571.88 167.63 572.86 164.15 567.87 C 163.80 538.59 164.10 509.29 164.00 480.00 C 157.33 480.00 150.67 480.00 144.00 480.00 M 205.00 480.00 C 204.90 509.29 205.21 538.60 204.85 567.88 C 201.08 573.11 193.62 571.84 188.00 572.07 C 188.00 588.56 187.99 605.06 188.01 621.55 C 188.01 627.54 187.96 633.53 188.05 639.52 C 206.02 639.45 223.98 639.42 241.95 639.54 C 242.04 633.54 241.99 627.55 241.99 621.55 C 242.02 605.06 241.99 588.57 242.00 572.08 C 237.81 572.05 233.44 572.30 229.48 570.70 C 227.63 569.90 225.61 568.33 226.00 566.07 C 226.00 537.38 226.00 508.69 226.00 480.00 C 219.00 480.00 212.00 480.00 205.00 480.00 M 267.00 480.00 C 267.00 508.69 267.00 537.37 267.00 566.06 C 267.38 568.32 265.37 569.90 263.53 570.69 C 259.24 572.41 254.52 572.04 250.00 572.07 C 250.01 588.56 249.98 605.06 250.01 621.55 C 249.99 627.52 250.00 633.49 250.00 639.47 C 265.00 639.47 280.00 639.48 295.00 639.47 C 295.00 633.49 295.01 627.52 294.98 621.56 C 295.02 574.37 294.99 527.19 295.00 480.00 C 285.67 480.00 276.33 480.00 267.00 480.00 M 303.00 480.00 C 303.01 527.18 302.98 574.37 303.01 621.56 C 303.02 627.55 302.93 633.55 303.08 639.55 C 317.35 639.40 331.62 639.44 345.89 639.49 C 345.88 633.51 345.88 627.52 345.88 621.54 C 345.90 605.18 345.86 588.81 345.89 572.45 C 341.05 572.41 335.86 572.90 331.44 570.53 C 329.75 569.71 328.70 567.91 328.99 566.04 C 329.01 537.36 329.00 508.68 329.00 480.00 C 320.33 480.00 311.67 480.00 303.00 480.00 M 370.00 480.00 C 369.92 509.32 370.15 538.65 369.89 567.96 C 366.87 573.21 359.55 572.28 354.34 572.47 C 354.38 588.79 354.35 605.11 354.35 621.44 C 354.36 627.44 354.38 633.45 354.33 639.46 C 373.18 639.51 392.03 639.42 410.88 639.51 C 410.89 633.52 410.87 627.53 410.88 621.55 C 410.90 605.18 410.85 588.82 410.90 572.45 C 406.05 572.40 400.84 572.90 396.42 570.52 C 394.77 569.70 393.71 567.96 393.99 566.11 C 394.01 537.41 394.00 508.70 394.00 480.00 C 386.00 480.00 378.00 480.00 370.00 480.00 M 435.00 480.00 C 434.92 509.32 435.15 538.65 434.89 567.96 C 431.86 573.21 424.55 572.28 419.34 572.47 C 419.37 588.79 419.36 605.11 419.35 621.44 C 419.38 627.46 419.32 633.48 419.38 639.51 C 433.25 639.42 447.12 639.50 461.00 639.47 C 461.00 633.49 461.01 627.52 460.98 621.55 C 461.02 574.37 460.99 527.18 461.00 480.00 C 452.33 480.00 443.67 480.00 435.00 480.00 M 469.00 480.00 C 469.01 527.18 468.98 574.37 469.01 621.55 C 468.99 627.52 469.00 633.49 469.00 639.47 C 483.31 639.46 497.62 639.50 511.93 639.45 C 511.84 633.48 511.89 627.52 511.87 621.55 C 511.90 605.19 511.85 588.82 511.90 572.45 C 507.05 572.40 501.84 572.90 497.42 570.51 C 495.75 569.70 494.72 567.93 494.99 566.08 C 495.01 537.39 495.00 508.69 495.00 480.00 C 486.33 480.00 477.67 480.00 469.00 480.00 M 536.00 480.00 C 535.92 509.32 536.15 538.65 535.89 567.96 C 532.86 573.21 525.54 572.28 520.34 572.47 C 520.37 588.79 520.36 605.11 520.35 621.43 C 520.36 627.44 520.38 633.45 520.33 639.46 C 538.18 639.52 556.04 639.41 573.89 639.49 C 573.87 633.50 573.88 627.52 573.87 621.55 C 573.90 605.18 573.86 588.81 573.90 572.45 C 569.04 572.40 563.81 572.91 559.39 570.50 C 557.73 569.67 556.71 567.90 556.99 566.04 C 557.01 537.36 557.00 508.68 557.00 480.00 C 550.00 480.00 543.00 480.00 536.00 480.00 M 598.00 480.00 C 597.92 509.31 598.15 538.64 597.89 567.95 C 594.87 573.21 587.55 572.28 582.34 572.47 C 582.38 588.80 582.35 605.13 582.35 621.46 C 582.36 627.47 582.35 633.47 582.35 639.48 C 593.23 638.86 604.63 641.18 615.04 637.07 C 615.03 630.73 615.05 624.39 615.03 618.05 C 615.02 572.04 615.03 526.02 615.02 480.00 C 609.35 480.00 603.67 480.00 598.00 480.00 Z" fill="#252122" opacity="1.00"/><path d=" M 163.94 39.01 C 193.75 28.70 225.51 24.55 256.98 25.01 C 288.08 24.76 319.43 28.99 348.89 39.17 C 378.20 49.14 405.30 65.88 426.70 88.32 C 446.28 108.79 460.98 133.71 470.57 160.31 C 474.35 171.25 478.07 182.36 479.31 193.93 C 480.06 201.60 481.21 209.27 480.86 217.01 C 480.42 235.02 481.39 253.96 489.87 270.25 C 495.65 281.57 505.60 290.01 515.94 297.06 C 523.43 301.85 531.71 305.43 540.30 307.74 C 552.24 311.08 564.82 310.29 577.02 309.23 C 582.73 309.28 588.53 308.48 594.17 309.71 C 613.09 313.12 630.76 323.05 643.70 337.25 C 651.83 344.65 658.01 353.84 663.90 363.04 C 668.62 371.44 671.64 380.70 674.03 390.00 C 675.57 395.53 674.90 401.31 674.91 406.96 C 460.64 406.98 246.36 407.00 32.08 406.95 C 31.96 357.64 32.04 308.33 32.04 259.03 C 31.75 242.53 33.14 226.03 35.57 209.72 C 39.27 167.79 55.04 126.53 82.29 94.23 C 103.71 68.71 132.52 49.85 163.94 39.01 Z" fill="#3d3f40" opacity="1.00"/><path d=" M 32.07 415.04 C 108.70 415.06 185.33 414.93 261.96 415.09 C 262.02 422.39 261.89 429.70 262.04 437.01 C 318.02 437.04 374.01 437.07 429.99 436.97 C 430.13 429.65 429.90 422.34 430.09 415.02 C 511.71 415.05 593.32 415.00 674.93 415.04 C 675.02 489.36 674.97 563.68 674.96 638.00 C 675.36 644.61 670.06 649.74 664.64 652.58 C 654.61 657.45 642.73 658.24 632.05 655.14 C 631.98 584.77 632.08 514.39 632.00 444.02 C 581.01 443.89 530.02 443.93 479.04 442.99 C 449.68 442.97 420.32 442.81 390.96 442.60 C 370.64 442.68 350.33 441.79 330.01 441.96 C 298.00 441.93 266.00 441.66 233.99 441.47 C 213.68 440.78 193.36 441.01 173.05 440.92 C 140.04 440.71 107.02 440.66 74.02 440.00 C 73.88 511.68 74.09 583.35 73.92 655.03 C 62.73 658.42 49.80 657.54 39.83 651.17 C 35.89 647.91 31.44 643.58 31.99 638.01 C 32.10 563.68 31.94 489.36 32.07 415.04 Z" fill="#3d3f40" opacity="1.00"/><path d=" M 267.76 415.81 C 290.17 415.31 312.61 415.75 335.03 415.61 C 364.77 415.71 394.52 415.41 424.26 415.75 C 424.43 420.88 424.57 426.02 424.21 431.15 C 404.82 431.71 385.39 431.22 365.98 431.39 C 333.23 431.24 300.47 431.67 267.73 431.20 C 267.50 426.07 267.48 420.94 267.76 415.81 Z" fill="#3d3f40" opacity="1.00"/><path d=" M 89.98 480.00 C 94.32 480.00 98.66 480.00 103.00 480.00 C 103.00 508.70 102.99 537.39 103.00 566.09 C 102.61 568.35 104.67 569.91 106.51 570.71 C 110.79 572.40 115.49 572.04 120.00 572.07 C 120.00 588.55 120.01 605.03 119.99 621.51 C 113.98 621.53 107.86 621.73 102.03 620.05 C 97.76 618.93 93.84 616.87 90.03 614.71 C 89.90 569.81 90.01 524.91 89.98 480.00 Z" fill="#ffffff" opacity="1.00"/><path d=" M 144.00 480.00 C 150.67 480.00 157.33 480.00 164.00 480.00 C 164.10 509.29 163.80 538.59 164.15 567.87 C 167.63 572.86 174.68 571.88 180.00 572.08 C 179.99 588.57 180.02 605.07 179.98 621.56 C 162.66 621.42 145.34 621.43 128.02 621.56 C 127.98 605.06 128.01 588.57 128.00 572.08 C 133.32 571.89 140.30 572.85 143.84 567.92 C 144.22 538.63 143.89 509.30 144.00 480.00 Z" fill="#ffffff" opacity="1.00"/><path d=" M 205.00 480.00 C 212.00 480.00 219.00 480.00 226.00 480.00 C 226.00 508.69 226.00 537.38 226.00 566.07 C 225.61 568.33 227.63 569.90 229.48 570.70 C 233.44 572.30 237.81 572.05 242.00 572.08 C 241.99 588.57 242.02 605.06 241.99 621.55 C 224.00 621.43 206.00 621.43 188.01 621.55 C 187.99 605.06 188.00 588.56 188.00 572.07 C 193.62 571.84 201.08 573.11 204.85 567.88 C 205.21 538.60 204.90 509.29 205.00 480.00 Z" fill="#ffffff" opacity="1.00"/><path d=" M 267.00 480.00 C 276.33 480.00 285.67 480.00 295.00 480.00 C 294.99 527.19 295.02 574.37 294.98 621.56 C 280.00 621.43 265.00 621.43 250.01 621.55 C 249.98 605.06 250.01 588.56 250.00 572.07 C 254.52 572.04 259.24 572.41 263.53 570.69 C 265.37 569.90 267.38 568.32 267.00 566.06 C 267.00 537.37 267.00 508.69 267.00 480.00 Z" fill="#ffffff" opacity="1.00"/><path d=" M 303.00 480.00 C 311.67 480.00 320.33 480.00 329.00 480.00 C 329.00 508.68 329.01 537.36 328.99 566.04 C 328.70 567.91 329.75 569.71 331.44 570.53 C 335.86 572.90 341.05 572.41 345.89 572.45 C 345.86 588.81 345.90 605.18 345.88 621.54 C 331.59 621.44 317.30 621.42 303.01 621.56 C 302.98 574.37 303.01 527.18 303.00 480.00 Z" fill="#ffffff" opacity="1.00"/><path d=" M 370.00 480.00 C 378.00 480.00 386.00 480.00 394.00 480.00 C 394.00 508.70 394.01 537.41 393.99 566.11 C 393.71 567.96 394.77 569.70 396.42 570.52 C 400.84 572.90 406.05 572.40 410.90 572.45 C 410.85 588.82 410.90 605.18 410.88 621.55 C 392.03 621.36 373.19 621.58 354.35 621.44 C 354.35 605.11 354.38 588.79 354.34 572.47 C 359.55 572.28 366.87 573.21 369.89 567.96 C 370.15 538.65 369.92 509.32 370.00 480.00 Z" fill="#ffffff" opacity="1.00"/><path d=" M 435.00 480.00 C 443.67 480.00 452.33 480.00 461.00 480.00 C 460.99 527.18 461.02 574.37 460.98 621.55 C 447.11 621.36 433.23 621.58 419.35 621.44 C 419.36 605.11 419.37 588.79 419.34 572.47 C 424.55 572.28 431.86 573.21 434.89 567.96 C 435.15 538.65 434.92 509.32 435.00 480.00 Z" fill="#ffffff" opacity="1.00"/><path d=" M 469.00 480.00 C 477.67 480.00 486.33 480.00 495.00 480.00 C 495.00 508.69 495.01 537.39 494.99 566.08 C 494.72 567.93 495.75 569.70 497.42 570.51 C 501.84 572.90 507.05 572.40 511.90 572.45 C 511.85 588.82 511.90 605.19 511.87 621.55 C 497.59 621.43 483.30 621.43 469.01 621.55 C 468.98 574.37 469.01 527.18 469.00 480.00 Z" fill="#ffffff" opacity="1.00"/><path d=" M 536.00 480.00 C 543.00 480.00 550.00 480.00 557.00 480.00 C 557.00 508.68 557.01 537.36 556.99 566.04 C 556.71 567.90 557.73 569.67 559.39 570.50 C 563.81 572.91 569.04 572.40 573.90 572.45 C 573.86 588.81 573.90 605.18 573.87 621.55 C 556.03 621.36 538.19 621.58 520.35 621.43 C 520.36 605.11 520.37 588.79 520.34 572.47 C 525.54 572.28 532.86 573.21 535.89 567.96 C 536.15 538.65 535.92 509.32 536.00 480.00 Z" fill="#ffffff" opacity="1.00"/><path d=" M 598.00 480.00 C 603.67 480.00 609.35 480.00 615.02 480.00 C 615.03 526.02 615.02 572.04 615.03 618.05 C 604.70 622.57 593.31 621.42 582.35 621.46 C 582.35 605.13 582.38 588.80 582.34 572.47 C 587.55 572.28 594.87 573.21 597.89 567.95 C 598.15 538.64 597.92 509.31 598.00 480.00 Z" fill="#ffffff" opacity="1.00"/><path d=" M 90.03 614.71 C 93.84 616.87 97.76 618.93 102.03 620.05 C 107.86 621.73 113.98 621.53 119.99 621.51 C 120.00 627.49 120.00 633.48 120.00 639.47 C 109.99 639.00 99.50 640.96 89.96 637.06 C 90.00 629.61 89.89 622.16 90.03 614.71 Z" fill="#bcbdbf" opacity="1.00"/><path d=" M 582.35 621.46 C 593.31 621.42 604.70 622.57 615.03 618.05 C 615.05 624.39 615.03 630.73 615.04 637.07 C 604.63 641.18 593.23 638.86 582.35 639.48 C 582.35 633.47 582.36 627.47 582.35 621.46 Z" fill="#bcbdbf" opacity="1.00"/><path d=" M 354.35 621.44 C 373.19 621.58 392.03 621.36 410.88 621.55 C 410.87 627.53 410.89 633.52 410.88 639.51 C 392.03 639.42 373.18 639.51 354.33 639.46 C 354.38 633.45 354.36 627.44 354.35 621.44 Z" fill="#bcbdbf" opacity="1.00"/><path d=" M 419.35 621.44 C 433.23 621.58 447.11 621.36 460.98 621.55 C 461.01 627.52 461.00 633.49 461.00 639.47 C 447.12 639.50 433.25 639.42 419.38 639.51 C 419.32 633.48 419.38 627.46 419.35 621.44 Z" fill="#bcbdbf" opacity="1.00"/><path d=" M 520.35 621.43 C 538.19 621.58 556.03 621.36 573.87 621.55 C 573.88 627.52 573.87 633.50 573.89 639.49 C 556.04 639.41 538.18 639.52 520.33 639.46 C 520.38 633.45 520.36 627.44 520.35 621.43 Z" fill="#bcbdbf" opacity="1.00"/><path d=" M 128.02 621.56 C 145.34 621.43 162.66 621.42 179.98 621.56 C 179.96 627.56 180.11 633.57 179.89 639.58 C 162.57 639.28 145.24 639.64 127.92 639.40 C 128.08 633.45 127.96 627.50 128.02 621.56 Z" fill="#bcbdbf" opacity="1.00"/><path d=" M 188.01 621.55 C 206.00 621.43 224.00 621.43 241.99 621.55 C 241.99 627.55 242.04 633.54 241.95 639.54 C 223.98 639.42 206.02 639.45 188.05 639.52 C 187.96 633.53 188.01 627.54 188.01 621.55 Z" fill="#bcbdbf" opacity="1.00"/><path d=" M 250.01 621.55 C 265.00 621.43 280.00 621.43 294.98 621.56 C 295.01 627.52 295.00 633.49 295.00 639.47 C 280.00 639.48 265.00 639.47 250.00 639.47 C 250.00 633.49 249.99 627.52 250.01 621.55 Z" fill="#bcbdbf" opacity="1.00"/><path d=" M 303.01 621.56 C 317.30 621.42 331.59 621.44 345.88 621.54 C 345.88 627.52 345.88 633.51 345.89 639.49 C 331.62 639.44 317.35 639.40 303.08 639.55 C 302.93 633.55 303.02 627.55 303.01 621.56 Z" fill="#bcbdbf" opacity="1.00"/><path d=" M 469.01 621.55 C 483.30 621.43 497.59 621.43 511.87 621.55 C 511.89 627.52 511.84 633.48 511.93 639.45 C 497.62 639.50 483.31 639.46 469.00 639.47 C 469.00 633.49 468.99 627.52 469.01 621.55 Z" fill="#bcbdbf" opacity="1.00"/></svg>